<svg width="180" height="12" viewBox="0 0 30 5" fill="none" xmlns="http://www.w3.org/2000/svg">
<circle cx="2.5" cy="2.50006" r="2.5" fill="black"/>
<circle cx="10.5" cy="2.50006" r="2.5" fill="black"/>
<circle cx="18.5" cy="2.50006" r="2.5" fill="black"/>
<path d="M29 2.50006C29 3.88077 27.8807 5.00006 26.5 5.00006C25.1193 5.00006 24 3.88077 24 2.50006C24 1.11935 25.1193 6.10352e-05 26.5 6.10352e-05C27.8807 6.10352e-05 29 1.11935 29 2.50006Z" fill="black"/>
<path d="M34.5 -1.09278e-07C33.837 -8.0296e-08 33.2011 0.263392 32.7322 0.732233C32.2634 1.20107 32 1.83696 32 2.5C32 3.16304 32.2634 3.79893 32.7322 4.26777C33.2011 4.73661 33.837 5 34.5 5L34.5 2.5L34.5 -1.09278e-07Z" fill="black"/>
<circle cx="34.5" cy="2.50006" r="2.5" fill="#1A1A1A" fill-opacity="0.2"/>
</svg>
