<svg width="10" height="10" viewBox="0 0 10 10" fill="none" xmlns="http://www.w3.org/2000/svg">
<circle cx="5" cy="5" r="5" fill="#5C6168"/>
<path d="M3.26042 7.39999V4.67272H4.01681V7.39999H3.26042ZM3.64039 4.32116C3.52793 4.32116 3.43146 4.28387 3.35097 4.2093C3.27166 4.13354 3.23201 4.04299 3.23201 3.93764C3.23201 3.83347 3.27166 3.7441 3.35097 3.66953C3.43146 3.59377 3.52793 3.55589 3.64039 3.55589C3.75284 3.55589 3.84872 3.59377 3.92803 3.66953C4.00852 3.7441 4.04877 3.83347 4.04877 3.93764C4.04877 4.04299 4.00852 4.13354 3.92803 4.2093C3.84872 4.28387 3.75284 4.32116 3.64039 4.32116ZM5.27911 5.82329V7.39999H4.52272V4.67272H5.2436V5.1539H5.27556C5.33593 4.99528 5.43714 4.86981 5.57918 4.77748C5.72123 4.68397 5.89346 4.63721 6.09587 4.63721C6.28527 4.63721 6.4504 4.67864 6.59126 4.7615C6.73212 4.84436 6.84161 4.96273 6.91974 5.11661C6.99786 5.26931 7.03693 5.4516 7.03693 5.66349V7.39999H6.28053V5.79843C6.28172 5.63153 6.2391 5.50132 6.15269 5.40781C6.06628 5.31311 5.94732 5.26576 5.7958 5.26576C5.694 5.26576 5.60404 5.28766 5.52592 5.33146C5.44898 5.37525 5.38861 5.43917 5.34481 5.52322C5.30219 5.60608 5.2803 5.7061 5.27911 5.82329Z" fill="white"/>
</svg>
