<svg width="7" height="11" viewBox="0 0 7 11" fill="none" xmlns="http://www.w3.org/2000/svg">
<path fill-rule="evenodd" clip-rule="evenodd" d="M2.72725 9.24243H3.63634C3.88725 9.24243 4.09089 9.0388 4.09089 8.78789C4.09089 8.53698 3.88725 8.33334 3.63634 8.33334H2.72725C2.47634 8.33334 2.27271 8.53698 2.27271 8.78789C2.27271 9.0388 2.47634 9.24243 2.72725 9.24243Z" fill="#5C6168"/>
<path fill-rule="evenodd" clip-rule="evenodd" d="M6.36364 1.96972C6.36364 1.6079 6.22 1.26108 5.96409 1.00562C5.70864 0.749715 5.36182 0.606079 5 0.606079C3.99091 0.606079 2.37273 0.606079 1.36364 0.606079C1.00182 0.606079 0.655 0.749715 0.399546 1.00562C0.143636 1.26108 0 1.6079 0 1.96972V9.24244C0 9.60426 0.143636 9.95108 0.399546 10.2065C0.655 10.4624 1.00182 10.6061 1.36364 10.6061H5C5.36182 10.6061 5.70864 10.4624 5.96409 10.2065C6.22 9.95108 6.36364 9.60426 6.36364 9.24244V1.96972ZM5.45455 1.96972V9.24244C5.45455 9.3629 5.40682 9.47881 5.32136 9.56381C5.23636 9.64926 5.12045 9.69699 5 9.69699C3.99091 9.69699 2.37273 9.69699 1.36364 9.69699C1.24318 9.69699 1.12727 9.64926 1.04227 9.56381C0.956818 9.47881 0.909091 9.3629 0.909091 9.24244C0.909091 7.50062 0.909091 3.71153 0.909091 1.96972C0.909091 1.84926 0.956818 1.73335 1.04227 1.64835C1.12727 1.5629 1.24318 1.51517 1.36364 1.51517H5C5.12045 1.51517 5.23636 1.5629 5.32136 1.64835C5.40682 1.73335 5.45455 1.84926 5.45455 1.96972Z" fill="#5C6168"/>
</svg>
