<svg width="15" height="13" viewBox="0 0 9 8" fill="none" xmlns="http://www.w3.org/2000/svg">
<path d="M8.19632 7.46554C8.39863 7.46554 8.57392 7.39874 8.72294 7.26684L6.1731 4.7169C6.11192 4.76071 6.05263 4.80331 5.99661 4.84382C5.80579 4.98441 5.65092 5.09411 5.532 5.17272C5.41309 5.25152 5.25489 5.33183 5.0574 5.41382C4.85979 5.49591 4.67569 5.53683 4.5049 5.53683H4.4999H4.4949C4.3241 5.53683 4.13999 5.49593 3.94239 5.41382C3.74479 5.33183 3.58659 5.25152 3.4678 5.17272C3.34889 5.09411 3.1941 4.98442 3.00319 4.84382C2.94998 4.80481 2.89098 4.76202 2.82719 4.71622L0.276855 7.26684C0.42586 7.39874 0.60127 7.46554 0.80356 7.46554H8.19632Z" fill="#5C6168"/>
<path d="M0.507309 3.11113C0.316506 2.98392 0.147305 2.83824 0 2.67413V6.55366L2.24742 4.30624C1.79781 3.99235 1.21851 3.59444 0.507309 3.11113Z" fill="#5C6168"/>
<path d="M8.49784 3.11113C7.81376 3.57414 7.23235 3.97274 6.75354 4.30714L9.00006 6.55376V2.67413C8.85603 2.83494 8.68864 2.98052 8.49784 3.11113Z" fill="#5C6168"/>
<path d="M8.19639 0.393921H0.803642C0.545731 0.393921 0.347445 0.481013 0.208539 0.655018C0.0695181 0.829104 0.00012207 1.04682 0.00012207 1.30792C0.00012207 1.51882 0.0922144 1.74733 0.276317 1.99353C0.46042 2.23962 0.656321 2.43293 0.863921 2.57353C0.977729 2.65394 1.32093 2.89254 1.89354 3.28924C2.20264 3.50344 2.47145 3.69014 2.70245 3.85126C2.89935 3.98845 3.06915 4.10725 3.20935 4.20585C3.22544 4.21714 3.25076 4.23525 3.28435 4.25927C3.32054 4.28526 3.36634 4.31825 3.42285 4.35905C3.53166 4.43775 3.62205 4.50136 3.69404 4.54995C3.76594 4.59857 3.85305 4.65286 3.95524 4.71316C4.05735 4.77337 4.15366 4.81865 4.24405 4.84876C4.33446 4.87886 4.41815 4.89396 4.49515 4.89396H4.50015H4.50515C4.58212 4.89396 4.66583 4.87886 4.75626 4.84876C4.84664 4.81865 4.94286 4.77347 5.04505 4.71316C5.14714 4.65286 5.23414 4.59845 5.30626 4.54995C5.37826 4.50136 5.46865 4.43776 5.57748 4.35905C5.63386 4.31825 5.67967 4.28525 5.71586 4.25935C5.74947 4.23523 5.77476 4.21724 5.79096 4.20585C5.90017 4.12985 6.07037 4.01153 6.2992 3.85264C6.71557 3.56334 7.32878 3.13754 8.1414 2.57353C8.3858 2.40283 8.58999 2.19683 8.75409 1.95583C8.9179 1.71483 9.00002 1.46203 9.00002 1.19752C9.00002 0.976524 8.9204 0.787421 8.76149 0.62992C8.6024 0.472614 8.41402 0.393921 8.19639 0.393921Z" fill="#5C6168"/>
</svg>
